<svg width="64" height="32" viewBox="0 0 64 32" fill="none" xmlns="http://www.w3.org/2000/svg">
<path d="M2.93333 0.133301C1.296 0.133301 4.23492e-08 1.4133 4.23492e-08 3.0133C-6.55904e-05 3.39604 0.0761576 3.77495 0.224215 4.12789C0.372272 4.48083 0.589193 4.80072 0.862301 5.06886C1.13541 5.337 1.45922 5.54802 1.81482 5.68957C2.17042 5.83113 2.55066 5.90039 2.93333 5.8933C4.58667 5.8933 5.89333 4.6133 5.89333 3.0133C5.89333 1.4133 4.58667 0.133301 2.93333 0.133301ZM23.2267 0.186634C14.2667 0.186634 8.66667 6.2933 8.66667 16C8.66667 25.7866 14.2667 31.8666 23.2267 31.8666C32.1333 31.8666 37.76 25.7866 37.76 16C37.76 6.2933 32.1333 0.186634 23.2267 0.186634ZM52.1333 0.186634C45.4667 0.186634 40.72 3.86663 40.72 9.3333C40.72 13.68 43.4133 16.4 49.0667 17.7066L53.04 18.6666C56.9067 19.5466 58.48 20.8266 58.48 23.04C58.48 25.6 55.8933 27.4133 52.2133 27.4133C48.4533 27.4133 45.6267 25.5733 45.3333 22.7466H40C40.2133 28.4 44.8533 31.8666 51.8933 31.8666C59.3333 31.8666 64 28.2133 64 22.4C64 17.84 61.3333 15.2533 55.1467 13.84L51.6 13.04C47.84 12.1333 46.2933 10.9333 46.2933 8.90663C46.2933 6.34663 48.64 4.63997 52.1067 4.63997C55.6 4.63997 58 6.3733 58.2667 9.22663H63.4933C63.36 3.83997 58.9067 0.186634 52.1333 0.186634ZM23.2267 4.8533C28.6667 4.8533 32.16 9.19997 32.16 16C32.16 22.8533 28.6667 27.2 23.2267 27.2C17.7333 27.2 14.2667 22.8533 14.2667 16C14.2667 9.19997 17.7333 4.8533 23.2267 4.8533ZM0.296 8.82664V31.36H5.6V8.82664H0.293333H0.296Z" fill="url(#paint0_linear_427_779)"/>
<defs>
<linearGradient id="paint0_linear_427_779" x1="25.5337" y1="1.01022" x2="31.9686" y2="33.3326" gradientUnits="userSpaceOnUse">
<stop stop-color="#7A21BD"/>
<stop offset="0.68552" stop-color="#5956E9"/>
<stop offset="0.95625" stop-color="#7976FC"/>
</linearGradient>
</defs>
</svg>
