<svg width="56" height="40" viewBox="0 0 56 40" fill="none" xmlns="http://www.w3.org/2000/svg">
<path d="M40 27C40 27.5934 39.8241 28.1734 39.4944 28.6668C39.1648 29.1601 38.6962 29.5446 38.1481 29.7717C37.5999 29.9987 36.9967 30.0582 36.4147 29.9424C35.8328 29.8266 35.2982 29.5409 34.8787 29.1214C34.4591 28.7018 34.1734 28.1673 34.0577 27.5853C33.9419 27.0034 34.0013 26.4002 34.2284 25.852C34.4554 25.3038 34.84 24.8353 35.3333 24.5056C35.8266 24.176 36.4067 24 37 24C37.7957 24 38.5587 24.3161 39.1213 24.8787C39.6839 25.4413 40 26.2044 40 27ZM19 24C18.4067 24 17.8266 24.176 17.3333 24.5056C16.84 24.8353 16.4554 25.3038 16.2284 25.852C16.0013 26.4002 15.9419 27.0034 16.0577 27.5853C16.1734 28.1673 16.4591 28.7018 16.8787 29.1214C17.2982 29.5409 17.8328 29.8266 18.4147 29.9424C18.9967 30.0582 19.5999 29.9987 20.1481 29.7717C20.6962 29.5446 21.1648 29.1601 21.4944 28.6668C21.8241 28.1734 22 27.5934 22 27C22 26.2044 21.6839 25.4413 21.1213 24.8787C20.5587 24.3161 19.7957 24 19 24ZM56 30V36C56 37.0609 55.5786 38.0783 54.8284 38.8285C54.0783 39.5786 53.0609 40 52 40H4.00001C2.93914 40 1.92173 39.5786 1.17158 38.8285C0.421435 38.0783 8.18741e-06 37.0609 8.18741e-06 36V30.275C-0.00292144 26.4201 0.780391 22.605 2.30206 19.063C3.82373 15.521 6.05178 12.3266 8.85001 9.67505L2.57501 3.42505C2.25608 3.03645 2.0931 2.54313 2.11776 2.04102C2.14242 1.53892 2.35296 1.06394 2.70843 0.708467C3.0639 0.352997 3.53888 0.142456 4.04098 0.117796C4.54309 0.093136 5.03642 0.25612 5.42501 0.575046L11.95 7.12505C16.6478 3.798 22.2605 2.007 28.0171 1.99805C33.7737 1.9891 39.3919 3.76263 44.1 7.07505L50.575 0.575046C50.9636 0.25612 51.4569 0.093136 51.959 0.117796C52.4611 0.142456 52.9361 0.352997 53.2916 0.708467C53.6471 1.06394 53.8576 1.53892 53.8823 2.04102C53.9069 2.54313 53.7439 3.03645 53.425 3.42505L47.2 9.62505L47.775 10.175C50.3914 12.7696 52.4659 15.8583 53.8779 19.2618C55.2899 22.6652 56.0113 26.3154 56 30ZM52 30C52.0108 26.8405 51.3931 23.7104 50.1827 20.7918C48.9724 17.8733 47.1937 15.2246 44.95 13C44.3383 12.4003 43.6958 11.8328 43.025 11.3C43.025 11.2934 43.0224 11.2871 43.0177 11.2824C43.013 11.2777 43.0066 11.275 43 11.275C38.7546 7.84549 33.4576 5.9827 28 6.00005H27.925C14.725 6.05005 4.00001 16.95 4.00001 30.275V36H52V30Z" fill="url(#paint0_linear_427_781)"/>
<defs>
<linearGradient id="paint0_linear_427_781" x1="22.342" y1="1.21752" x2="33.5069" y2="40.2599" gradientUnits="userSpaceOnUse">
<stop stop-color="#7A21BD"/>
<stop offset="0.68552" stop-color="#5956E9"/>
<stop offset="0.95625" stop-color="#7976FC"/>
</linearGradient>
</defs>
</svg>
