<svg width="56" height="56" viewBox="0 0 56 56" fill="none" xmlns="http://www.w3.org/2000/svg">
<g clip-path="url(#clip0_410_92)">
<path d="M56 8.20312V47.7969C56 52.3248 52.3248 56 47.7969 56H34.5625L31.2812 52.7188H28L24.7188 56H8.20312C3.67517 56 0 52.3248 0 47.7969V8.20312C0 3.67517 3.67517 0 8.20312 0H47.7969C52.3248 0 56 3.67517 56 8.20312Z" fill="#7984EB"/>
<path d="M56 8.20312V47.7969C56 52.3248 52.3248 56 47.7969 56H34.5625L31.2812 52.7188H29.6406V0H47.7969C52.3248 0 56 3.67517 56 8.20312Z" fill="#4661D1"/>
<path d="M34.5625 19.6875V26.25H44.4062L42.7656 36.0938H34.5625V56H24.7188V36.0938H18.1562V26.25H24.7188V19.6875C24.7188 16.0452 26.7204 12.8622 29.6406 11.1562C31.0843 10.3359 32.7907 9.84375 34.5625 9.84375H44.4062V19.6875H34.5625Z" fill="#ECECF1"/>
<path d="M34.5625 19.6875V26.25H44.4062L42.7656 36.0938H34.5625V56H29.6406V11.1562C31.0843 10.3359 32.7907 9.84375 34.5625 9.84375H44.4062V19.6875H34.5625Z" fill="#E2E2E7"/>
</g>
<defs>
<clipPath id="clip0_410_92">
<rect width="56" height="56" fill="white"/>
</clipPath>
</defs>
</svg>
