<svg width="126" height="93" viewBox="0 0 126 93" fill="none" xmlns="http://www.w3.org/2000/svg">
<rect x="21.478" y="-36.6996" width="163" height="32" transform="rotate(40 21.478 -36.6996)" fill="url(#paint0_linear_709_142)"/>
<path d="M54.2652 19.0071C54.0609 18.8357 53.9495 18.6448 53.9311 18.4345C53.9209 18.2309 54.0015 18.027 54.1729 17.8227L60.4054 10.3952C60.5836 10.1827 60.7745 10.0714 60.9781 10.0611C61.1885 10.0427 61.3958 10.1192 61.6001 10.2906L64.5294 12.7487C65.4609 13.5303 65.9846 14.3665 66.1004 15.2574C66.223 16.1401 65.9347 16.9981 65.2353 17.8316C64.5291 18.6732 63.7273 19.1144 62.8299 19.155C61.9393 19.1875 61.0283 18.8129 60.0968 18.0313L57.7925 16.0978L55.4476 18.8923C55.2762 19.0966 55.0894 19.2114 54.8872 19.2366C54.685 19.2619 54.4776 19.1854 54.2652 19.0071ZM58.6461 15.0805L60.7665 16.8597C61.3794 17.374 61.9542 17.6265 62.4909 17.6174C63.0427 17.607 63.5449 17.3321 63.9974 16.7929C64.4431 16.2617 64.6197 15.7276 64.5273 15.1906C64.4499 14.6522 64.1048 14.1259 63.4919 13.6117L61.3715 11.8325L58.6461 15.0805ZM65.1499 28.1823C64.3328 27.4967 63.7687 26.717 63.4575 25.8432C63.1614 24.9681 63.1235 24.0591 63.3438 23.1161C63.5792 22.1718 64.074 21.2503 64.8282 20.3515C65.3973 19.6732 66.0021 19.1433 66.6425 18.7617C67.2898 18.372 67.9503 18.1325 68.6239 18.0433C69.3044 17.9459 69.9795 18.0042 70.6494 18.2181C71.3192 18.4321 71.9647 18.7996 72.5857 19.3207C73.411 20.0132 73.9751 20.7929 74.2781 21.6598C74.5811 22.5267 74.6183 23.4282 74.3898 24.3643C74.1694 25.3073 73.6821 26.2282 72.9279 27.127C72.3589 27.8052 71.7507 28.3392 71.1033 28.729C70.456 29.1188 69.7881 29.3589 69.0994 29.4494C68.4189 29.5468 67.7438 29.4886 67.0739 29.2746C66.4041 29.0606 65.7627 28.6965 65.1499 28.1823ZM66.0755 27.0792C66.6475 27.5591 67.2434 27.8364 67.8632 27.9108C68.4911 27.9922 69.1205 27.8728 69.7512 27.5526C70.39 27.2393 71.0043 26.7313 71.5939 26.0286C72.4784 24.9745 72.9271 23.9585 72.94 22.9807C72.9528 22.0029 72.5262 21.1506 71.6601 20.4238C71.0881 19.9439 70.4881 19.6632 69.8602 19.5819C69.2472 19.4992 68.6213 19.6145 67.9825 19.9279C67.3518 20.248 66.7416 20.7595 66.1519 21.4622C65.2743 22.5081 64.8257 23.524 64.8059 24.51C64.7944 25.5029 65.2176 26.3593 66.0755 27.0792ZM71.561 33.5201C71.3567 33.3487 71.2454 33.1578 71.227 32.9474C71.2168 32.7439 71.2973 32.54 71.4688 32.3357L77.7012 24.9081C77.8795 24.6957 78.0704 24.5843 78.2739 24.5741C78.4843 24.5557 78.6916 24.6322 78.8959 24.8036L81.8253 27.2616C82.7568 28.0432 83.2804 28.8795 83.3962 29.7703C83.5189 30.653 83.2305 31.5111 82.5312 32.3445C81.825 33.1862 81.0231 33.6273 80.1257 33.668C79.2351 33.7005 78.3241 33.3259 77.3926 32.5443L75.0883 30.6107L72.7434 33.4053C72.572 33.6096 72.3852 33.7243 72.183 33.7496C71.9808 33.7749 71.7735 33.6983 71.561 33.5201ZM75.942 29.5934L78.0624 31.3727C78.6752 31.8869 79.25 32.1395 79.7868 32.1304C80.3386 32.1199 80.8407 31.8451 81.2932 31.3058C81.7389 30.7747 81.9155 30.2406 81.8231 29.7035C81.7457 29.1652 81.4006 28.6389 80.7878 28.1246L78.6674 26.3454L75.942 29.5934ZM82.2602 42.5395C81.68 42.0527 81.231 41.5507 80.9132 41.0333C80.6022 40.5078 80.4224 39.9671 80.3738 39.4111C80.3333 38.8619 80.424 38.2975 80.6459 37.7178C80.8677 37.1381 81.2255 36.5541 81.7191 35.9658L85.5861 31.3572C85.7644 31.1448 85.9512 31.03 86.1466 31.0129C86.3501 31.0027 86.554 31.0833 86.7583 31.2547C86.9626 31.4261 87.0732 31.6095 87.0903 31.8049C87.1156 32.0071 87.0391 32.2144 86.8608 32.4268L83.0144 37.0109C82.3082 37.8525 81.9723 38.6428 82.0066 39.3818C82.0492 40.1276 82.4422 40.8125 83.1858 41.4364C83.9375 42.0672 84.6803 42.3354 85.414 42.2409C86.1477 42.1464 86.8677 41.6784 87.5739 40.8367L91.4203 36.2527C91.5986 36.0403 91.7854 35.9255 91.9808 35.9084C92.1843 35.8982 92.3841 35.9753 92.5802 36.1399C92.7845 36.3113 92.8952 36.4947 92.9123 36.69C92.9294 36.8854 92.8488 37.0893 92.6705 37.3017L88.8035 41.9103C88.1453 42.6947 87.4551 43.2434 86.7329 43.5565C86.0258 43.8682 85.2976 43.9395 84.5484 43.7703C83.7992 43.6011 83.0364 43.1909 82.2602 42.5395ZM88.4982 47.5859C88.294 47.4145 88.1826 47.2236 88.1642 47.0132C88.1458 46.8028 88.2223 46.5955 88.3937 46.3912L94.5953 39.0004C94.7736 38.788 94.9604 38.6732 95.1558 38.6561C95.3662 38.6377 95.5735 38.7142 95.7778 38.8856C95.982 39.057 96.0893 39.2445 96.0995 39.448C96.1248 39.6502 96.0483 39.8576 95.87 40.07L90.0387 47.0196L93.8382 50.2078C94.018 50.3586 94.1158 50.5242 94.1316 50.7045C94.1542 50.8767 94.0935 51.0486 93.9495 51.2202C93.8055 51.3918 93.6434 51.4855 93.4631 51.5012C93.2827 51.517 93.1027 51.4495 92.9229 51.2986L88.4982 47.5859ZM94.2629 52.5693C94.0995 52.4321 93.9996 52.2857 93.9633 52.1298C93.9269 51.974 93.952 51.828 94.0385 51.6917C94.125 51.5554 94.2661 51.4371 94.4617 51.3367L104.036 46.6717C104.283 46.5442 104.501 46.491 104.692 46.5121C104.892 46.5401 105.069 46.6192 105.224 46.7495C105.371 46.8729 105.472 47.0269 105.526 47.2115C105.588 47.4029 105.578 47.6309 105.495 47.8956L102.563 58.1348C102.507 58.3517 102.415 58.5187 102.289 58.6358C102.17 58.7446 102.035 58.7981 101.883 58.7962C101.738 58.7862 101.584 58.7126 101.421 58.5755C101.241 58.4246 101.136 58.2597 101.105 58.0807C101.074 57.9017 101.097 57.6839 101.173 57.4274L101.981 54.7219L102.269 55.5485L97.0476 51.1672L97.8994 51.2971L95.3876 52.5731C95.1413 52.7006 94.9315 52.7682 94.758 52.7758C94.5914 52.7752 94.4264 52.7064 94.2629 52.5693ZM103.945 48.2242L98.4124 51.0592L98.3528 50.5079L102.679 54.1384L102.151 54.196L103.97 48.2448L103.945 48.2242ZM103.974 60.718C103.77 60.5466 103.659 60.3557 103.64 60.1453C103.63 59.9418 103.711 59.7379 103.882 59.5336L110.114 52.1061C110.293 51.8936 110.484 51.7823 110.687 51.772C110.898 51.7536 111.105 51.8301 111.309 52.0015L114.239 54.4596C115.17 55.2412 115.704 56.0652 115.84 56.9315C115.977 57.7978 115.705 58.6355 115.027 59.4444C114.588 59.9674 114.096 60.3208 113.552 60.5047C113.008 60.6886 112.433 60.6935 111.827 60.5193C111.23 60.3521 110.624 60.0113 110.012 59.4971L110.266 59.418L110.585 59.6854C110.911 59.9597 111.125 60.2779 111.225 60.6402C111.333 61.0093 111.334 61.4559 111.228 61.98L110.637 64.8256C110.595 65.0412 110.512 65.215 110.387 65.3471C110.277 65.4778 110.139 65.5429 109.973 65.5424C109.814 65.5486 109.649 65.4798 109.478 65.3358C109.298 65.185 109.182 65.0248 109.129 64.8553C109.091 64.6844 109.093 64.4837 109.133 64.253L109.841 60.7953C109.937 60.3326 109.919 59.9556 109.788 59.6643C109.663 59.3648 109.421 59.0642 109.061 58.7625L107.676 57.6003L105.157 60.6032C104.985 60.8075 104.798 60.9223 104.596 60.9475C104.394 60.9728 104.187 60.8963 103.974 60.718ZM108.479 56.6443L110.575 58.403C111.196 58.9241 111.775 59.1876 112.313 59.1935C112.851 59.1994 113.336 58.945 113.768 58.4302C114.193 57.9236 114.356 57.4058 114.257 56.877C114.158 56.3481 113.798 55.8231 113.177 55.302L111.081 53.5434L108.479 56.6443Z" fill="#28085B"/>
<defs>
<linearGradient id="paint0_linear_709_142" x1="54.2981" y1="-28.0831" x2="61.2211" y2="-1.67752" gradientUnits="userSpaceOnUse">
<stop stop-color="#FFFFCC"/>
<stop offset="0.28" stop-color="#F6F19C"/>
<stop offset="0.77" stop-color="#E9DB4C"/>
<stop offset="1" stop-color="#E4D32D"/>
</linearGradient>
</defs>
</svg>
