<svg width="56" height="56" viewBox="0 0 56 56" fill="none" xmlns="http://www.w3.org/2000/svg">
<g clip-path="url(#clip0_410_97)">
<path d="M20.8918 50.9734C18.4702 50.9734 15.9777 50.7773 13.4702 50.3843C9.05374 49.6917 4.58305 47.3812 3.31798 46.6894L0 44.8758L3.59227 43.6945C7.51907 42.4029 9.9078 41.6018 12.8648 40.3474C9.90395 38.9136 7.62204 36.3347 6.5236 33.0005L5.68791 30.4631L6.37321 30.5682C5.72337 29.9132 5.21025 29.2484 4.81248 28.6434C3.39788 26.4952 2.64892 23.8694 2.80828 21.6199L2.9655 19.4055L4.29124 19.9191C3.73198 18.8629 3.32781 17.735 3.09026 16.5524C2.51134 13.6697 2.99584 10.6068 4.45488 7.92798L5.60972 5.80798L7.15421 7.66351C12.0389 13.5313 18.2258 17.0121 25.5689 18.0311C25.2689 15.9636 25.4937 13.968 26.2375 12.1799C27.1035 10.0975 28.6442 8.3313 30.6915 7.07306C32.9653 5.67553 35.7228 4.99835 38.4558 5.16626C41.3556 5.34399 43.9882 6.43048 46.0792 8.30993C47.1003 8.04504 47.8527 7.76178 48.8695 7.37897C49.4813 7.14825 50.1752 6.8872 51.0433 6.58813L54.2425 5.48584L52.1563 11.4438C52.2939 11.4322 52.4357 11.4228 52.584 11.416L56.0002 11.2614L53.9811 14.0214C53.8653 14.1794 53.8358 14.2239 53.7948 14.2858C53.632 14.5311 53.4295 14.8365 50.6579 18.5369C49.9641 19.4636 49.6176 20.671 49.6821 21.9365C49.9278 26.7456 49.3378 31.0963 47.9274 34.868C46.5936 38.4368 44.5266 41.4984 41.7845 43.9679C38.3913 47.024 34.0646 49.1158 28.924 50.1856C26.4024 50.7107 23.6945 50.9734 20.8918 50.9734Z" fill="#25D9F8"/>
<path d="M52.1559 11.4437L54.2421 5.48535L51.0429 6.58764C50.1747 6.88672 49.4813 7.14819 48.8691 7.37848C47.8522 7.76172 47.1003 8.04498 46.0792 8.30987C43.9878 6.43042 41.3556 5.34393 38.4554 5.16577C35.7223 4.99786 32.9653 5.67505 30.6915 7.07257C29.6456 7.71557 28.7335 8.49103 27.9747 9.37286V50.3693C28.2938 50.312 28.6104 50.2509 28.924 50.1855C34.0642 49.1157 38.3913 47.0235 41.7845 43.9678C44.5266 41.4979 46.5936 38.4363 47.9274 34.8679C49.3378 31.0962 49.9278 26.7451 49.6821 21.936C49.6172 20.6705 49.9637 19.4636 50.6579 18.5369C53.4291 14.8365 53.632 14.531 53.7948 14.2858C53.8354 14.2238 53.8653 14.179 53.9811 14.0209L55.9998 11.2613L52.584 11.416C52.4357 11.4224 52.2934 11.4322 52.1559 11.4437Z" fill="#00C0F1"/>
</g>
<defs>
<clipPath id="clip0_410_97">
<rect width="56" height="56" fill="white"/>
</clipPath>
</defs>
</svg>
