<svg width="56" height="56" viewBox="0 0 56 56" fill="none" xmlns="http://www.w3.org/2000/svg">
<path d="M47.7969 6.67188H8.20312C3.67517 6.67188 0 10.347 0 14.875V41.125C0 45.653 3.67517 49.3281 8.20312 49.3281H47.7969C52.3248 49.3281 56 45.653 56 41.125V14.875C56 10.347 52.3248 6.67188 47.7969 6.67188Z" fill="#FF3939"/>
<path d="M56 14.875V41.125C56 45.653 52.3248 49.3281 47.7969 49.3281H28V6.67188H47.7969C52.3248 6.67188 56 10.347 56 14.875Z" fill="#C90232"/>
<path d="M28 21.5687L19.7969 17.0078V39.3203L28 34.5954L39.5502 27.9671L28 21.5687Z" fill="#ECECF1"/>
<path d="M39.5502 27.967L28 34.5953V21.5686L39.5502 27.967Z" fill="#E2E2E7"/>
</svg>
